<?xml version="1.0" encoding="utf-8"?>
<!-- Generator: Adobe Illustrator 19.2.1, SVG Export Plug-In . SVG Version: 6.00 Build 0)  -->
<svg version="1.1" id="_圖層_2" xmlns="http://www.w3.org/2000/svg" xmlns:xlink="http://www.w3.org/1999/xlink" x="0px" y="0px"
	 width="36px" height="35.8px" viewBox="0 0 36 35.8" style="enable-background:new 0 0 36 35.8;" xml:space="preserve">
<style type="text/css">
	.st0{fill:#0073AD;}
	.st1{fill:#FFFFFF;}
</style>
<g>
	<polygon class="st0" points="9.8,28.6 15.2,35.7 20.8,35.8 26.6,32.1 31.5,20.3 28,6.9 17.3,5.1 7,9.3 3.9,19.5 6.9,24.5 	"/>
	<g id="_圖層_8">
		<path id="fb" class="st1" d="M36,18c0,9-6.6,16.4-15.2,17.8V23.2H25l0.8-5.2h-5v-3.4c0-1.4,0.7-2.8,2.9-2.8H26V7.4
			C26,7.4,24,7,22,7c-4.1,0-6.8,2.5-6.8,7v4h-4.6v5.2h4.6v12.6C6.6,34.4,0,27,0,18C0,8.1,8.1,0,18,0S36,8.1,36,18L36,18z"/>
	</g>
</g>
</svg>
