<?xml version="1.0" encoding="UTF-8"?>
<svg id="a" data-name=" 圖層 2" xmlns="http://www.w3.org/2000/svg" width="12.7mm" height="12.7mm" viewBox="0 0 35.99 35.99">
  <defs>
    <style>
      .d {
        fill: #fff;
      }

      .e {
        fill: #35a854;
      }

      .f {
        fill: #fbbc04;
      }

      .g {
        fill: #ea4335;
      }

      .h {
        fill: #4285f5;
      }
    </style>
  </defs>
  <g id="b" data-name=" 圖層 8">
    <g id="c" data-name="line">
      <path class="d" d="M0,17.99c0,9.94,8.06,17.99,17.99,17.99s17.99-8.06,17.99-17.99S27.93,0,17.99,0,0,8.06,0,17.99Z"/>
    </g>
  </g>
  <g>
    <path class="h" d="M23.11,22.62c.14-.2.29-.44.43-.69.31-.59.5-1.14.61-1.59h-5.87v-4.33h10.29c.12.56.25,1.32.26,2.23,0,.63-.03,1.94-.52,3.51-.49,1.56-1.18,2.6-1.37,2.88-.12.18-.56.81-1.27,1.52-.08.09-.17.17-.25.25l-.05-.05-3.48-2.71s0,0,0,0c.43-.29.83-.64,1.19-1.03l.04.03Z"/>
    <path class="g" d="M25.53,9.66l-3.21,3.24c-1.11-.9-2.52-1.43-4.05-1.43-2.89,0-5.34,1.91-6.2,4.56l-.06-.02-3.72-2.91h0c1.81-3.66,5.58-6.18,9.94-6.18,2.79,0,5.35,1.03,7.3,2.74Z"/>
    <path class="e" d="M25.37,26.34l.05.05c-.61.58-1.2,1-1.67,1.3l-.04-.06c-1.61.92-3.48,1.44-5.47,1.44-4.36,0-8.13-2.52-9.94-6.18h0s3.72-2.89,3.72-2.89h0c.8,2.74,3.3,4.73,6.26,4.73,1.34,0,2.58-.41,3.62-1.11l3.48,2.71Z"/>
    <path class="f" d="M12.01,16l.06.02c-.21.65-.33,1.35-.33,2.08,0,.66.1,1.3.27,1.9h0s0,0,0,0l-3.72,2.89h0c-.73-1.48-1.14-3.14-1.14-4.9s.41-3.42,1.14-4.9l3.72,2.91Z"/>
  </g>
</svg>