<?xml version="1.0" encoding="UTF-8"?>
<svg id="_圖層_2" data-name="圖層 2" xmlns="http://www.w3.org/2000/svg" width="35.99" height="35.99" viewBox="0 0 35.99 35.99">
  <g id="_圖層_8" data-name="圖層 8">
    <g id="line">
      <path d="M0,17.99c0,9.94,8.06,17.99,17.99,17.99s17.99-8.06,17.99-17.99S27.93,0,17.99,0,0,8.06,0,17.99Z" style="fill: #fff; stroke-width: 0px;"/>
      <path d="M31.93,14.89C30.72,5.44,18.08,1.87,10.49,6.17-.92,12.62,3.88,26.22,15.63,27.78l.16.03c.37.07.47.17.5.21.05.07.02.22,0,.3-.16.68-.36,1.33-.23,2.09.38,2.03,2.52,1.03,3.59.32,1.36-.8,2.65-1.7,3.62-2.4,4.57-3.19,9.4-7.15,8.66-13.46ZM12.71,19.16h-2.42c-.37,0-.65-.3-.65-.67v-5.07c0-.87,1.26-.87,1.34,0v4.4h1.73c.87,0,.87,1.34,0,1.34ZM15.24,18.48c0,.87-1.34.87-1.34,0v-5.07c0-.87,1.34-.87,1.34,0v5.07ZM21.2,18.48c.02.62-.85.91-1.21.39l-2.39-3.28v2.89c0,.87-1.26.87-1.26,0v-4.93c-.08-.63.82-.9,1.18-.39l2.37,3.28v-3.04c0-.87,1.3-.87,1.32,0v5.07ZM26.02,19.01h-3.27c-.37,0-.66-.28-.66-.65,0-1.26,0-3.81,0-5.08,0-.37.3-.67.66-.67h3.17c.87.08.87,1.34,0,1.34h-2.48v1.18h2.01c.87.08.87,1.34,0,1.34h-2.01v1.26h2.58c.87,0,.87,1.26,0,1.26Z" style="fill: #0073ad; stroke-width: 0px;"/>
    </g>
  </g>
</svg>