<?xml version="1.0" encoding="UTF-8"?>
<svg id="_圖層_2" data-name="圖層 2" xmlns="http://www.w3.org/2000/svg" width="290.41" height="88.61" viewBox="0 0 290.41 88.61">
  <g id="_圖層_2-2" data-name="圖層 2">
    <g id="LOGO">
      <g>
        <path d="M38.7,38.7L3.02,53.66C1.28,49.5.25,44.98.04,40.42c-.03-.57-.04-1.14-.04-1.72C0,17.38,17.38,0,38.7,0s38.69,17.38,38.69,38.7c0,2.87-.45,6.05-1.06,8.77l-37.63-8.77Z" style="fill: #2878b9; fill-rule: evenodd; stroke-width: 0px;"/>
        <path d="M44.72,33.18l13.77,17.86,17.85-3.77c-3.94,17.5-19.83,30.18-37.82,30.18-16.95,0-32.23-11.32-37.07-27.46l31.37.86,11.89-17.68Z" style="fill: #9ec317; fill-rule: evenodd; stroke-width: 0px;"/>
        <path d="M.04,40.64l13.19-.07c5.1-7.64,10.19-15.29,15.29-22.93.88-.93,1.56-1.04,2.36-.76l4.01,4.27-15.92,22.29-18.81-.05-.11-2.75Z" style="fill: #fff; fill-rule: evenodd; stroke-width: 0px;"/>
        <polygon points="1.02 48.26 26.54 48.26 45.52 20.06 65.1 48.26 75.85 48.26 75.27 49.79 62.79 49.79 45.53 24.85 28.12 50.18 1.49 49.99 1.02 48.26" style="fill: #9ec317; fill-rule: evenodd; stroke-width: 0px;"/>
        <polygon points="1.86 51.2 1.46 49.99 28.05 49.86 45.58 24.78 62.91 49.82 75.7 49.82 74.62 52.74 57.05 52.74 44.88 35.54 34.19 52.36 2.24 52.37 1.86 51.2" style="fill: #fff; fill-rule: evenodd; stroke-width: 0px;"/>
        <path d="M1.02,48.26l-.26-1.4-.17-1.6,19.97.09L43.48,10.96c.56-.47.9-.79,1.98-.71.55.1,1.04.2,1.84,1.02l23.8,34.4h5.68l-.61,2.59-11.04-.04-19.75-27.84-18.72,28.03-25.66-.15Z" style="fill: #fff; fill-rule: evenodd; stroke-width: 0px;"/>
      </g>
      <g>
        <path d="M114.7,29.23c-.97.5-1.94,1-2.87,1.42.97.7,2.12,1.27,3.46,1.62-.57.55-1.37,1.54-1.74,2.27-3.31-1.12-5.48-3.46-6.75-6.65-.72.62-1.52,1.2-2.42,1.72v2.14l3.51-.67c-.07.65-.07,1.62-.02,2.17-4.61,1-5.43,1.22-5.91,1.52-.15-.57-.6-1.52-.95-1.99.45-.2,1-.7,1-1.69v-.22c-.7.3-1.37.52-2.04.75-.27-.42-.72-.97-1.15-1.45l.02.17c-2.29.67-4.73,1.3-6.75,1.84l-.5-2.69c.72-.15,1.52-.35,2.44-.57v-6.13h-1.94v-2.57h1.94v-4.63h-2.12v-2.59h6.75v2.59h-2.04v4.63h1.82v2.57h-1.82v5.51l1.87-.5.22,1.69c1.77-.47,3.61-1.17,5.11-2.02h-2.87v-5.46h12.41v5.46h-4.16c.27.62.65,1.2,1.07,1.69.92-.52,1.84-1.17,2.47-1.67l1.94,1.74ZM114.78,21.13h-15.25v-2.34h15.25v2.34ZM113.98,17.99h-13.58v-5.66h13.58v5.66ZM104.36,14.33h-1.57v1.67h1.57v-1.67ZM103.59,25.42h7v-1.4h-7v1.4ZM107.9,14.33h-1.59v1.67h1.59v-1.67ZM111.44,14.33h-1.64v1.67h1.64v-1.67Z" style="fill: #444; stroke-width: 0px;"/>
        <path d="M125.22,28.81c-2.57,1.07-5.41,2.22-7.65,3.09l-.97-3.04c.82-.25,1.79-.55,2.87-.92v-7.67h-2.42v-2.82h2.42v-5.58h2.89v5.58h2.12v2.82h-2.12v6.68c.77-.27,1.52-.55,2.29-.82l.57,2.69ZM136.73,32.17c.17,0,.37,0,.5-.05.12-.05.22-.2.3-.5.05-.3.07-.97.1-1.87.5.47,1.57.97,2.27,1.22-.07.92-.17,1.92-.37,2.34-.22.42-.57.72-1.05.92-.37.15-1.07.22-1.54.22h-1.59c-.65,0-1.45-.2-1.89-.6-.47-.42-.7-.95-.7-2.47v-3.01h-1.79c-.42,3.29-1.67,5.33-6.33,6.5-.25-.67-.95-1.77-1.52-2.27,3.84-.75,4.73-2.02,5.08-4.24h-2.07v-7.53h11.94v7.53h-2.57v3.09c0,.32,0,.5.1.6.1.07.25.1.45.1h.7ZM139.27,20.01h-14.13v-2.44h3.02c-.12-.55-.35-1.15-.55-1.64l2.39-.47c.3.62.62,1.5.77,2.12h2.82c.27-.7.55-1.5.72-2.12l2.69.5c-.3.57-.55,1.12-.82,1.62h3.09v2.44ZM138.62,15.43h-12.78v-2.39h4.93c-.15-.4-.3-.82-.42-1.17l2.79-.52c.22.5.47,1.15.67,1.69h4.81v2.39ZM128.83,23.75h6.38v-1.05h-6.38v1.05ZM128.83,26.52h6.38v-1.05h-6.38v1.05Z" style="fill: #444; stroke-width: 0px;"/>
        <path d="M153.75,17.4c-.52,1.2-1.02,2.49-1.52,3.54h2.92v2.69h-13.16v-2.69h3.19c-.25-1.02-.72-2.44-1.25-3.49l2.02-.5h-3.34v-2.67h4.71c-.2-.72-.5-1.5-.8-2.17l2.72-.77c.45.92.9,2.04,1.2,2.94h4.21v2.67h-2.92l2.02.45ZM143.14,25.42h11.06v9.24h-2.92v-1h-5.33v1.12h-2.82v-9.37ZM145.95,28.06v3.04h5.33v-3.04h-5.33ZM146.55,16.95c.6,1.12,1.12,2.59,1.37,3.56l-1.5.42h2.97c.52-1.17,1.07-2.77,1.4-3.99h-4.24ZM164.99,13.88c-.85,2.39-1.87,5.26-2.82,7.4,1.99,2.24,2.37,4.21,2.37,5.83,0,1.79-.4,3.02-1.32,3.66-.45.32-1,.5-1.64.6-.55.07-1.27.1-1.92.05-.05-.77-.27-1.94-.72-2.74.55.05,1.05.05,1.4.05s.65-.07.92-.25c.42-.25.57-.87.57-1.72,0-1.35-.52-3.14-2.42-5.13.7-1.82,1.47-4.36,2.04-6.25h-2.79v19.34h-2.59V12.71h6.43l.42-.1,2.07,1.27Z" style="fill: #444; stroke-width: 0px;"/>
        <path d="M114.7,59.13c-.97.5-1.94,1-2.87,1.42.97.7,2.12,1.27,3.46,1.62-.57.55-1.37,1.54-1.74,2.27-3.31-1.12-5.48-3.46-6.75-6.65-.72.62-1.52,1.2-2.42,1.72v2.14l3.51-.67c-.07.65-.07,1.62-.02,2.17-4.61,1-5.43,1.22-5.91,1.52-.15-.57-.6-1.52-.95-1.99.45-.2,1-.7,1-1.69v-.22c-.7.3-1.37.52-2.04.75-.27-.42-.72-.97-1.15-1.45l.02.17c-2.29.67-4.73,1.3-6.75,1.84l-.5-2.69c.72-.15,1.52-.35,2.44-.57v-6.13h-1.94v-2.57h1.94v-4.63h-2.12v-2.59h6.75v2.59h-2.04v4.63h1.82v2.57h-1.82v5.51l1.87-.5.22,1.69c1.77-.47,3.61-1.17,5.11-2.02h-2.87v-5.46h12.41v5.46h-4.16c.27.62.65,1.2,1.07,1.69.92-.52,1.84-1.17,2.47-1.67l1.94,1.74ZM114.78,51.04h-15.25v-2.34h15.25v2.34ZM113.98,47.9h-13.58v-5.66h13.58v5.66ZM104.36,44.23h-1.57v1.67h1.57v-1.67ZM103.59,55.32h7v-1.4h-7v1.4ZM107.9,44.23h-1.59v1.67h1.59v-1.67ZM111.44,44.23h-1.64v1.67h1.64v-1.67Z" style="fill: #444; stroke-width: 0px;"/>
        <path d="M126.29,47.9h-9.32v-2.34h3.96c-.32-.95-.95-2.19-1.47-3.14l2.14-1.07c.6,1.02,1.32,2.39,1.69,3.31l-1.54.9h4.54v2.34ZM117.97,51.26v-2.24h7.28v2.24h-7.28ZM125.27,54.6h-7.3v-2.24h7.3v2.24ZM125.29,63.35h-4.98v1.05h-2.32v-8.6h7.3v7.55ZM120.31,58.16v2.79h2.64v-2.79h-2.64ZM140.09,56.24h-5.48v8.47h-2.92v-8.47h-5.48v-2.82h5.48v-8h-4.66v-2.77h12.61v2.77h-5.03v8h5.48v2.82ZM129.63,46.48c.57,1.82,1.05,4.16,1.15,5.71l-2.49.6c-.05-1.57-.5-3.96-1-5.81l2.34-.5ZM135.36,52.18c.52-1.62,1.1-4.14,1.35-5.93l2.82.57c-.62,2.09-1.32,4.41-1.89,5.91l-2.27-.55Z" style="fill: #444; stroke-width: 0px;"/>
        <path d="M154.72,50.29v.87h7.97v1.79h-7.97v.9h9.79v2.07h-22.35v-2.07h9.59v-.9h-7.85v-1.79h7.85v-.87h-7.3v-1.72h7.3v-.95h-9.57v-2.04h9.57v-.92h-7.03v-1.72h7.03v-1.57h2.97v1.57h6.95v2.64h2.84v2.04h-2.84v2.67h-6.95ZM145.28,56.69h16.52v8.07h-2.99v-.72h-10.66v.75h-2.87v-8.1ZM148.14,58.59v.9h10.66v-.9h-10.66ZM158.81,62.17v-.97h-10.66v.97h10.66ZM154.72,45.58h4.01v-.92h-4.01v.92ZM154.72,48.57h4.01v-.95h-4.01v.95Z" style="fill: #444; stroke-width: 0px;"/>
        <path d="M174.71,42.44c-.67,1.77-1.49,3.59-2.44,5.31v16.94h-2.82v-12.53c-.5.62-1,1.25-1.5,1.79-.27-.75-1.1-2.34-1.59-3.09,2.19-2.24,4.31-5.78,5.53-9.32l2.82.9ZM189.81,56.34h-6.38v8.37h-2.99v-8.37h-6.73v-2.89h6.73v-4.29h-3.04c-.45,1.22-1,2.34-1.54,3.21-.55-.4-1.84-1.1-2.57-1.42,1.35-1.94,2.37-5.11,2.94-8.15l2.87.6c-.2.97-.45,1.92-.72,2.87h2.07v-4.51h2.99v4.51h5.21v2.89h-5.21v4.29h6.38v2.89Z" style="fill: #444; stroke-width: 0px;"/>
        <path d="M195.89,52.36c-.85.5-1.69.9-2.59,1.25-.42-.7-1.27-1.79-1.89-2.37,2.77-.87,5.46-2.54,7.38-4.44h-6.65v-2.57h9.52v-2.79h2.94v2.79h9.72v2.57h-6.3c2.39,1.47,4.91,3.14,6.38,4.39l-1.89,2.14c-1.69-1.54-5.06-3.89-7.9-5.66v3.59h-2.94v-3.76c-1.42,1.72-3.19,3.26-5.13,4.49h13.8v8.27h-14.43v-7.9ZM192.3,61.43h21.78v2.59h-21.78v-2.59ZM198.83,55.15h8.37v-1.22h-8.37v1.22ZM198.83,58.31h8.37v-1.3h-8.37v1.3Z" style="fill: #444; stroke-width: 0px;"/>
        <path d="M225.97,47.9h-9.32v-2.34h4.06c-.4-.95-1.07-2.19-1.64-3.14l2.09-1.17c.7,1.02,1.5,2.39,1.89,3.29l-1.57,1.02h4.49v2.34ZM239.37,44.96s0,1.02-.02,1.37c-.27,11.49-.5,15.57-1.42,16.84-.6.92-1.25,1.2-2.14,1.35-.87.15-2.19.15-3.46.1-.05-.85-.42-2.12-.92-2.94,1.3.1,2.44.12,3.02.12.42,0,.7-.12.97-.47.65-.77.92-4.44,1.15-13.68h-6.85c-.35.65-.72,1.22-1.1,1.79h5.73v10.29h-4.88v.9h-2.34v-9.57c-.57-.5-1.52-1.2-2.17-1.62v1.82h-7.28v-2.24h7.28v.22c1.79-1.82,3.26-4.73,4.01-7.7l2.97.67c-.27.95-.6,1.84-.97,2.74h8.45ZM217.64,52.36h7.3v2.24h-7.3v-2.24ZM224.95,63.35h-4.98v1.05h-2.29v-8.6h7.28v7.55ZM219.96,58.16v2.79h2.62v-2.79h-2.62ZM229.43,51.78v1.69h2.49v-1.69h-2.49ZM231.92,57.39v-1.67h-2.49v1.67h2.49Z" style="fill: #444; stroke-width: 0px;"/>
        <path d="M249.67,58.59c-1.47,1.89-3.69,3.94-5.48,5.16-.62-.52-1.84-1.5-2.59-1.94,1.87-1.02,3.86-2.72,5.06-4.29l3.02,1.07ZM254.65,56.59v4.93c0,1.47-.3,2.22-1.4,2.69-1.05.45-2.47.47-4.31.47-.15-.87-.65-2.12-1.07-2.89,1.27.05,2.79.05,3.21.05.42-.02.55-.1.55-.4v-4.61c-5.66.45-6.78.62-7.65.95-.12-.52-.55-1.94-.87-2.67,1-.15,1.94-.52,3.46-1.27.77-.32,2.22-1.05,3.94-2.07-3.99.27-4.83.4-5.41.65-.15-.57-.57-1.97-.87-2.74.67-.1,1.25-.37,2.09-.82.67-.32,2.34-1.27,3.99-2.52-2.39.47-4.81.85-7.1,1.15-.1-.75-.5-1.89-.82-2.52,5.73-.77,12.01-2.07,15.82-3.69l2.19,2.34c-2.07.82-4.54,1.52-7.15,2.09l1.35.87c-1.35,1-2.77,1.94-4.24,2.79l4.31-.22c.92-.65,1.79-1.3,2.64-1.99l2.19,1.97c-2.64,1.99-5.53,3.71-8.42,5.13l7.03-.47c-.52-.62-1.07-1.22-1.59-1.77l2.47-1.25c1.77,1.77,3.81,4.09,4.86,5.61l-2.52,1.52c-.32-.5-.75-1.1-1.27-1.74l-5.41.42ZM258.39,57.19c1.92,1.27,4.39,3.19,5.58,4.56l-2.62,1.74c-1.07-1.32-3.46-3.34-5.38-4.73l2.42-1.57Z" style="fill: #444; stroke-width: 0px;"/>
        <path d="M269.33,58.19c-.17,2.22-.57,4.58-1.1,6.08-.47-.3-1.59-.65-2.19-.8.57-1.45.85-3.66,1-5.66l2.29.37ZM273.74,56.72c-.05-.35-.12-.7-.22-1.12-4.98.87-5.81,1.15-6.35,1.42-.12-.55-.57-1.89-.92-2.64.67-.17,1.2-.7,1.94-1.64.32-.35.87-1.02,1.52-1.97-1.84.22-2.39.35-2.74.52-.15-.57-.6-1.87-.9-2.62.47-.12.9-.6,1.4-1.35.52-.7,2.02-3.46,2.92-6.1l2.64,1.15c-.92,2.12-2.17,4.36-3.46,6.2l1.64-.12c.67-1.17,1.37-2.49,1.92-3.74l2.44,1.52c-1.42,2.69-3.29,5.41-5.18,7.65l2.49-.4c-.22-.65-.47-1.3-.72-1.84l1.99-.77c.77,1.59,1.52,3.64,1.74,4.98l-2.14.87ZM271.92,57.59c.3,1.64.6,3.71.67,5.13l-2.19.55c-.05-1.4-.3-3.51-.55-5.13l2.07-.55ZM274.56,56.87c.45,1.3.97,2.97,1.22,4.04l-2.07.77c-.2-1.12-.7-2.84-1.15-4.14l1.99-.67ZM286.57,61.65c.45,0,.52-.47.6-3.39.57.45,1.74.92,2.49,1.1-.25,3.84-.92,4.91-2.79,4.91h-1.79c-2.27,0-2.77-.87-2.77-3.49v-7.43l-1.42.17c-.2,5.33-.87,9.07-4.93,11.29-.32-.72-1.17-1.82-1.79-2.32,3.29-1.69,3.79-4.44,3.94-8.6-.95.12-1.35.25-1.69.4-.15-.57-.65-2.04-1-2.84.6-.17,1.1-.77,1.72-1.79.3-.4.87-1.35,1.5-2.59h-2.97v-2.77h4.24c.4-.97.8-1.97,1.12-2.99l3.21.85c-.3.72-.6,1.42-.92,2.14h5.86v2.77h-7.25c-.75,1.42-1.57,2.74-2.37,3.94l5.26-.5c-.4-.67-.8-1.32-1.15-1.94l2.39-1.07c1.27,1.92,2.77,4.46,3.36,6.18l-2.59,1.2c-.17-.57-.45-1.22-.77-1.94l-.97.12v7.72c0,.77.05.87.47.87h1.02Z" style="fill: #444; stroke-width: 0px;"/>
      </g>
    </g>
  </g>
</svg>