<?xml version="1.0" encoding="UTF-8"?>
<svg id="_圖層_2" data-name="圖層 2" xmlns="http://www.w3.org/2000/svg" width="35.99" height="35.99" viewBox="0 0 35.99 35.99">
  <g id="_圖層_8" data-name="圖層 8">
    <g id="youtube">
      <circle cx="17.99" cy="17.99" r="17.99" style="fill: #fff; stroke-width: 0px;"/>
      <path d="M29.49,12.22c-.28-1.03-1.09-1.85-2.12-2.12-1.87-.5-9.37-.5-9.37-.5,0,0-7.5,0-9.37.5-1.03.28-1.85,1.09-2.12,2.12-.5,1.87-.5,5.77-.5,5.77,0,0,0,3.9.5,5.77.28,1.03,1.09,1.85,2.12,2.12,1.87.5,9.37.5,9.37.5,0,0,7.5,0,9.37-.5,1.03-.28,1.85-1.09,2.12-2.12.5-1.87.5-5.77.5-5.77,0,0,0-3.9-.5-5.77ZM15.59,21.59v-7.2l6.23,3.6-6.23,3.6Z" style="fill: #0073ad; stroke-width: 0px;"/>
    </g>
  </g>
</svg>